<svg width="20" height="20" viewBox="0 0 20 20" fill="none" xmlns="http://www.w3.org/2000/svg">
<path d="M3.2449 16.4399V20H16.4286V16.5012C16.4286 15.7347 16.0612 15.0204 15.449 14.9303C14.8367 14.8402 12.9592 14.5714 12.9592 14.5714C11.6735 17.6122 7.85714 17.4898 6.72894 14.4808C6.72894 14.4808 4.94535 14.787 4.41634 14.9303C3.66185 15.1347 3.2449 15.5609 3.2449 16.4399Z" fill="#969FA8"/>
<path d="M5.00385 12.009C4.23549 13.1041 3.94981 14.1306 3.98381 14.5714L7.24489 13.9796C7.55782 13.7823 8.08979 13.1878 7.71428 12.3878C7.24489 11.3878 6.55102 10.0844 6.71428 8.92995L6.61211 6.53454C6.57695 5.71007 6.53562 5.18438 7.32974 4.95997C8.57569 4.60788 11.0031 4.57418 12.2489 4.92676C13.0242 5.14619 13.0773 5.68177 13.043 6.48681L12.9388 8.92995C12.932 9.66078 12.7347 11.3755 12 12.3878C11.9048 12.9184 11.902 13.9796 12.6531 13.9796L15.7347 14.5714C15.6871 13.9308 15.7347 13.3878 14.735 12.009C14.2327 11.3161 14.0618 9.57143 14.0618 8.92995V4.3837C14.0618 3.38775 12.3469 1 9.83885 1C7.39759 1 5.69748 3.38775 5.69748 4.3837V8.92995C5.69748 9.53061 5.69748 11.0204 5.00385 12.009Z" fill="#7F5F52" stroke="black" stroke-width="0.7"/>
<path d="M6.51021 8.66084V6.57302C6.51021 6.57302 5.2449 6.4845 5.2449 7.62735C5.2449 8.66084 6.51021 8.66084 6.51021 8.66084Z" fill="#FEDAC6" stroke="black" stroke-width="0.7"/>
<path d="M13.1224 8.66083V6.57301C13.1224 6.57301 14.3877 6.48449 14.3877 7.62735C14.3877 8.66083 13.1224 8.66083 13.1224 8.66083Z" fill="#FEDAC6" stroke="black" stroke-width="0.7"/>
<path d="M7.90151 13.3338C7.96978 13.0211 8.00879 12.681 7.95918 12.4082C7.70672 12.0215 7.34646 11.4117 7.05572 10.7959C6.72756 10.1009 6.59184 9.18368 6.59184 8.77551V6.57143V5.44286C6.59184 5.27718 6.72771 5.14425 6.88756 5.10067C7.88747 4.82806 9.06326 3.30367 9.58462 2.56484C9.7134 2.38236 9.99453 2.38651 10.1184 2.57239C10.6201 3.3256 11.758 4.87676 12.7617 5.11449C12.9314 5.15467 13.0816 5.29138 13.0816 5.46573V6.57143L13.0974 6.85572C13.1683 8.13196 13.0822 9.41114 12.6659 10.6196C12.4191 11.3359 11.9592 12 11.6939 12.4082C11.6803 12.9116 11.7265 13.951 12.0204 14.0816C12.1113 14.122 12.3946 14.1856 12.7755 14.2592C11.6939 17.2653 7.95918 17.2857 6.89796 14.1874C7.37431 14.1127 7.79865 13.8049 7.90151 13.3338Z" fill="#FEDAC6"/>
<path d="M3 20V16.3469V16.3469C3 15.0533 4.57406 14.6055 5.84597 14.3693C6.20241 14.3031 6.56323 14.2399 6.89796 14.1874M7.95918 12.4082C8.00879 12.681 7.96978 13.0211 7.90151 13.3338C7.79865 13.8049 7.37431 14.1127 6.89796 14.1874V14.1874M7.95918 12.4082C8.95918 13.5102 10.6816 13.6 11.6939 12.4082M7.95918 12.4082C7.70672 12.0215 7.34646 11.4117 7.05572 10.7959M11.6939 12.4082C11.6803 12.9116 11.7265 13.951 12.0204 14.0816C12.1113 14.122 12.3946 14.1856 12.7755 14.2592M11.6939 12.4082C11.9592 12 12.4191 11.3359 12.6659 10.6196M16.6735 20V16.3469C16.6735 15.2694 16.0476 14.8367 15.7347 14.7551C14.9641 14.6376 13.6262 14.4235 12.7755 14.2592M6.89796 14.1874C7.95918 17.2857 11.6939 17.2653 12.7755 14.2592M7.05572 10.7959C6.72756 10.1009 6.59184 9.18368 6.59184 8.77551V6.57143V5.44286C6.59184 5.27718 6.72771 5.14425 6.88756 5.10067C7.88747 4.82806 9.06326 3.30367 9.58462 2.56484C9.7134 2.38236 9.99453 2.38651 10.1184 2.57239C10.6201 3.3256 11.758 4.87676 12.7617 5.11449C12.9314 5.15467 13.0816 5.29138 13.0816 5.46573V6.57143L13.0974 6.85572C13.1683 8.13196 13.0822 9.41114 12.6659 10.6196V10.6196M7.05572 10.7959L8.18413 9.92015C8.23675 9.87931 8.30146 9.85715 8.36806 9.85715H9.7551H11.1695C11.219 9.85715 11.2677 9.8694 11.3113 9.8928L12.6659 10.6196" stroke="black" stroke-width="0.7"/>
<rect x="6.63265" y="5.59183" width="2.89796" height="2.08163" fill="black"/>
<rect x="6.95918" y="6.2449" width="1.91837" height="0.816326" fill="#EBEBEB"/>
<rect x="10.5102" y="5.59183" width="2.77551" height="2.08163" fill="black"/>
<rect x="10.7959" y="6.21631" width="1.91837" height="0.832653" fill="#EBEBEB"/>
<path d="M10.1428 5.91836L10.5102 8.65305H9.5306" stroke="black" stroke-width="0.7"/>
<path d="M9.47691 5.94H10.5564" stroke="black" stroke-width="0.7"/>
<path d="M8.40816 10.1429L7.42857 10.9388C8.85714 14.2857 11.7347 12.9796 12.2857 10.7959L11.1429 10.1429H8.40816Z" fill="#7F5F52"/>
<rect x="8.71429" y="10.7347" width="2.16326" height="0.653061" rx="0.326531" fill="black"/>
</svg>
